<?xml version="1.0" encoding="UTF-8"?>
<svg xmlns="http://www.w3.org/2000/svg" xmlns:xlink="http://www.w3.org/1999/xlink" viewBox="0 0 45.91 38.11">
  <defs>
    <style>
      .cls-1 {
        fill: url(#radial-gradient-3);
      }

      .cls-2 {
        fill: url(#radial-gradient-2);
      }

      .cls-3 {
        fill: url(#linear-gradient-3);
      }

      .cls-4 {
        fill: url(#linear-gradient-2);
      }

      .cls-5 {
        mix-blend-mode: overlay;
        opacity: .74;
      }

      .cls-5, .cls-6 {
        fill: #fff;
      }

      .cls-7 {
        fill: none;
        stroke: #f5197f;
        stroke-linecap: round;
        stroke-linejoin: round;
      }

      .cls-8 {
        fill: #eb6ea6;
      }

      .cls-9 {
        fill: url(#radial-gradient);
      }

      .cls-10 {
        fill: url(#linear-gradient);
      }

      .cls-11 {
        isolation: isolate;
      }

      .cls-12 {
        fill: #f07885;
      }

      .cls-13 {
        fill: #c2535f;
      }

      .cls-14 {
        fill: #bd7275;
      }

      .cls-15 {
        fill: #ffd4e8;
        mix-blend-mode: multiply;
      }

      .cls-16 {
        fill: #8c3739;
      }
    </style>
    <radialGradient id="radial-gradient" cx="1639.75" cy="9.27" fx="1639.75" fy="9.27" r="14.04" gradientTransform="translate(1683.35) rotate(-180) scale(1 -1)" gradientUnits="userSpaceOnUse">
      <stop offset="0" stop-color="#ffe8f2"/>
      <stop offset="1" stop-color="#ffbada"/>
    </radialGradient>
    <radialGradient id="radial-gradient-2" cx="8.08" cy="9.27" fx="8.08" fy="9.27" r="14.04" gradientTransform="matrix(1,0,0,1,0,0)" xlink:href="#radial-gradient"/>
    <radialGradient id="radial-gradient-3" cx="25.45" cy="12.96" fx="25.45" fy="12.96" r="24.76" gradientTransform="matrix(1,0,0,1,0,0)" xlink:href="#radial-gradient"/>
    <linearGradient id="linear-gradient" x1="1.6" y1="16.1" x2="6.42" y2="18.49" gradientUnits="userSpaceOnUse">
      <stop offset="0" stop-color="#feee64"/>
      <stop offset=".53" stop-color="#fcb46c"/>
      <stop offset="1" stop-color="#fc8674"/>
    </linearGradient>
    <linearGradient id="linear-gradient-2" x1="-.85" y1="17.28" x2="9.67" y2="17.28" gradientUnits="userSpaceOnUse">
      <stop offset="0" stop-color="#f74545"/>
      <stop offset=".07" stop-color="#f74b43"/>
      <stop offset=".16" stop-color="#f85e3e"/>
      <stop offset=".27" stop-color="#fa7c36"/>
      <stop offset=".4" stop-color="#fca62a"/>
      <stop offset=".51" stop-color="#ffd21f"/>
      <stop offset=".54" stop-color="#ffd225"/>
      <stop offset=".59" stop-color="#ffd338"/>
      <stop offset=".62" stop-color="#ffd447"/>
      <stop offset=".67" stop-color="#fecd46"/>
      <stop offset=".74" stop-color="#fdba46"/>
      <stop offset=".82" stop-color="#fb9c46"/>
      <stop offset=".91" stop-color="#f97245"/>
      <stop offset="1" stop-color="#f74545"/>
    </linearGradient>
    <linearGradient id="linear-gradient-3" x1="4.31" y1="13.86" x2="4.48" y2="20.15" gradientUnits="userSpaceOnUse">
      <stop offset=".23" stop-color="#fff"/>
      <stop offset=".63" stop-color="#fff" stop-opacity="0"/>
    </linearGradient>
  </defs>
  <g class="cls-11">
    <g id="Layer_2" data-name="Layer 2">
      <g id="Layer_1-2" data-name="Layer 1">
        <g>
          <g>
            <g>
              <path class="cls-9" d="M38.36,23.45c-2.94,0-7.55-9.93-8.07-11.06-.05-.11-.04-.24.02-.35.06-.11.17-.17.3-.18,0,0,2.16-.14,4.78-.24,1.23-.05,2.57-.08,3.83-.09,4.37,0,5.34.34,5.7.64,1.15.95.49,2.05-.21,3.21-.3.5-.64,1.07-.89,1.69l-.08.19c-.39.97-.87,2.17-1.56,3.29-.57.96-1.23,1.7-1.95,2.19-.5.34-1.04.57-1.61.69-.09.02-.18.03-.27.03h0Z"/>
              <path class="cls-8" d="M39.22,11.91c2.61,0,4.94.12,5.46.55,1.31,1.09-.38,2.4-1.21,4.47-.39.97-.89,2.26-1.61,3.42-.49.82-1.1,1.57-1.84,2.08-.44.3-.93.52-1.47.63-.06.01-.13.02-.19.02-2.78,0-7.73-10.84-7.73-10.84,0,0,2.15-.14,4.77-.24,1.23-.05,2.56-.08,3.82-.09M39.22,11.16h0c-1.31.01-2.64.04-3.84.09-2.6.1-4.77.24-4.79.24-.25.02-.47.15-.59.36s-.14.47-.04.7c1.21,2.65,5.38,11.28,8.41,11.28.12,0,.23-.01.34-.03.62-.13,1.21-.38,1.75-.75.77-.53,1.46-1.31,2.06-2.31.7-1.13,1.19-2.36,1.59-3.34l.07-.19c.24-.6.56-1.13.87-1.64.68-1.13,1.52-2.53.13-3.69-.46-.38-1.49-.72-5.94-.72h0Z"/>
            </g>
            <path class="cls-5" d="M39.78,22.49s.13-.03.24-.06c1.79-1.24,2.78-3.84,3.45-5.5.83-2.07,2.52-3.38,1.21-4.47-.77-.64-5.52-.6-9.28-.46.76.03,8.28.29,8.89.8.64.54.16,1.47-.63,2.94-.79,1.47-.8,2.33-1.75,4.08-.88,1.62-1.96,2.53-2.13,2.67Z"/>
            <path class="cls-14" d="M34.53,14.44s4.63-2.04,9.13-.96c0,0-.7.86-2.14,3.06s-2.14,3.54-3.45,3.41-3.54-5.52-3.54-5.52Z"/>
            <path class="cls-15" d="M30.63,12.24s5.18,11.36,7.92,10.82c.54-.11,1.03-.33,1.47-.63.74-.51,1.35-1.26,1.84-2.08-.87-.85-2.14-2.33-2.77-4.13-.56-1.6-.25-3.21.13-4.31-1.26.01-2.59.04-3.82.09-2.62.1-4.77.24-4.77.24Z"/>
          </g>
          <g>
            <g>
              <path class="cls-2" d="M13.33,23.45c-.09,0-.18,0-.27-.03-.57-.12-1.11-.35-1.61-.69-.72-.5-1.38-1.23-1.95-2.2-.69-1.11-1.17-2.32-1.56-3.29l-.07-.18c-.25-.62-.59-1.19-.89-1.69-.7-1.16-1.35-2.25-.21-3.21.36-.3,1.33-.64,5.7-.64,1.27.01,2.6.04,3.84.09,2.62.1,4.78.24,4.78.24.12,0,.23.08.3.18s.07.24.02.35c-.52,1.13-5.13,11.06-8.07,11.06Z"/>
              <path class="cls-8" d="M12.46,11.91c1.26.01,2.59.04,3.82.09,2.62.1,4.77.24,4.77.24,0,0-4.94,10.84-7.73,10.84-.07,0-.13,0-.19-.02-.54-.11-1.03-.33-1.47-.63-.74-.51-1.35-1.26-1.84-2.08-.72-1.16-1.22-2.45-1.61-3.42-.83-2.07-2.52-3.38-1.21-4.47.52-.43,2.85-.55,5.46-.55M12.46,11.16c-4.45,0-5.48.35-5.94.72-1.39,1.16-.55,2.56.13,3.69.31.51.63,1.04.87,1.64l.07.19c.39.98.88,2.21,1.59,3.35.6,1,1.29,1.78,2.05,2.3.54.37,1.13.62,1.75.75.12.02.23.03.34.03,3.03,0,7.2-8.63,8.41-11.28.1-.22.09-.48-.04-.7s-.35-.35-.59-.36c-.02,0-2.19-.14-4.79-.24-1.2-.05-2.53-.08-3.84-.09h0Z"/>
            </g>
            <path class="cls-5" d="M11.9,22.49s-.13-.03-.24-.06c-1.79-1.24-2.78-3.84-3.45-5.5-.83-2.07-2.52-3.38-1.21-4.47.77-.64,5.52-.6,9.28-.46-.76.03-8.28.29-8.89.8-.64.54-.16,1.47.63,2.94.79,1.47.8,2.33,1.75,4.08.88,1.62,1.96,2.53,2.13,2.67Z"/>
            <path class="cls-14" d="M17.15,14.44s-4.63-2.04-9.13-.96c0,0,.7.86,2.14,3.06s2.14,3.54,3.45,3.41,3.54-5.52,3.54-5.52Z"/>
            <path class="cls-15" d="M21.05,12.24s-5.18,11.36-7.92,10.82c-.54-.11-1.03-.33-1.47-.63-.74-.51-1.35-1.26-1.84-2.08.87-.85,2.14-2.33,2.77-4.13.56-1.6.25-3.21-.13-4.31,1.26.01,2.59.04,3.82.09,2.62.1,4.77.24,4.77.24Z"/>
          </g>
          <g>
            <path class="cls-1" d="M25.83,37.73c-2.25-.04-4.35-.22-6.24-.55-3.54-.61-6.11-1.68-7.66-3.16-1.06-1.02-1.55-2.32-1.48-3.87.08-1.65.82-3.19,1.21-4.02.09-.19.16-.34.21-.45.16-.42.11-1.1.04-1.88-.06-.71-.13-1.51-.06-2.36.17-1.92,1.94-6.38,5.42-8.46,1.18-.71,2.52-1.24,4-1.6,1.77-.43,3.3-.49,4.05-.49.3,0,.49,0,.53.01,0,0,.2-.01.5-.01,1.37,0,4.88.2,8.04,2.1,3.48,2.08,5.25,6.54,5.42,8.46.08.86,0,1.67-.06,2.39-.07.77-.12,1.44.03,1.85.04.11.12.27.21.47.67,1.43,2.46,5.22-.27,7.86-3.2,3.08-10.08,3.64-13.9,3.71h-.01Z"/>
            <path class="cls-8" d="M26.36,11.28c1.29,0,4.76.19,7.85,2.04,3.38,2.02,5.08,6.39,5.24,8.17.16,1.79-.35,3.42,0,4.34.35.93,2.94,5.12.03,7.93-2.92,2.81-9.28,3.53-13.64,3.6-1.84-.03-4.03-.17-6.18-.54h-.01c-2.93-.51-5.76-1.44-7.45-3.06-1.12-1.08-1.42-2.36-1.36-3.58.1-1.96,1.17-3.78,1.39-4.35.36-.92-.15-2.55,0-4.34.16-1.78,1.86-6.15,5.24-8.17,1.3-.78,2.66-1.26,3.9-1.56,1.73-.42,3.22-.48,3.97-.48.32,0,.5.01.5.01,0,0,.19-.01.52-.01M26.36,10.53h0c-.26,0-.44,0-.52.01-.08,0-.25-.01-.5-.01-.77,0-2.33.07-4.14.5-1.52.37-2.9.92-4.11,1.65-3.6,2.15-5.42,6.76-5.6,8.75-.07.88,0,1.7.06,2.42.06.71.12,1.37-.01,1.71-.04.1-.11.25-.2.43-.4.85-1.16,2.44-1.24,4.16-.08,1.66.45,3.06,1.59,4.16,1.6,1.54,4.24,2.63,7.84,3.26.02,0,.03,0,.05,0,1.9.32,4,.51,6.25.54,3.89-.06,10.88-.64,14.17-3.81,2.93-2.83,1.06-6.8.35-8.29-.09-.19-.16-.34-.2-.44-.13-.34-.07-.99-.01-1.69.06-.73.14-1.56.06-2.45-.18-1.99-2.01-6.6-5.6-8.75-3.24-1.94-6.84-2.15-8.23-2.15h0Z"/>
          </g>
          <path class="cls-15" d="M19.66,36.82h-.01c-2.93-.51-5.76-1.44-7.45-3.06-2.91-2.81-.32-7,.03-7.93.36-.92-.15-2.55,0-4.34.16-1.78,1.86-6.15,5.24-8.17,1.3-.78,2.66-1.26,3.9-1.56,0,0-4,3.92-5.09,8.21-1.09,4.29.7,6.67,0,8.51-.7,1.84-.3,5.09,3.74,5.7,3.16.48,1.27,1.81-.36,2.64Z"/>
          <path class="cls-5" d="M25.84,11.29s-4.11.33-6.88,1.72c-2.77,1.4-4.07,3.21-5.31,5.64-1.23,2.42-1,4.41-.82,5.65.18,1.24-.22,1.73-.85,2.96-.63,1.22-.5,2.58-.5,2.58l-.64.34c.1-1.96,1.17-3.78,1.39-4.35.36-.92-.15-2.55,0-4.34.16-1.78,1.86-6.15,5.24-8.17,1.3-.78,2.66-1.26,3.9-1.56,2.48-.6,4.47-.47,4.47-.47Z"/>
          <g>
            <path class="cls-12" d="M25.83,33.11c-1.29,0-2.49-.36-3.29-.98-.63-.48-.99-1.09-.99-1.74,0-1.52,1.88-2.71,4.28-2.71s4.26,1.19,4.26,2.71c0,.82-.55,1.57-1.5,2.07-.01.01-.03.02-.05.03-.76.4-1.7.61-2.71.61Z"/>
            <path class="cls-13" d="M25.83,28.07c2.15,0,3.89,1.04,3.89,2.33,0,.7-.51,1.33-1.32,1.75,0,.01-.02.01-.03.02-.68.36-1.56.57-2.54.57-1.25,0-2.35-.35-3.06-.9-.52-.39-.84-.9-.84-1.44,0-1.29,1.74-2.33,3.9-2.33M25.83,27.32c-2.61,0-4.65,1.35-4.65,3.08,0,.76.4,1.49,1.14,2.04.86.66,2.14,1.05,3.51,1.05,1.08,0,2.08-.23,2.89-.66.02-.01.04-.02.06-.04,1.07-.57,1.69-1.44,1.69-2.4,0-1.73-2.04-3.08-4.64-3.08h0Z"/>
          </g>
          <path class="cls-5" d="M29.72,30.4c0,.7-.51,1.33-1.32,1.75,1.47-.89,1.24-2.52-.26-3.21-1.51-.69-3.99-.56-5.26.47-1.16.95-.26,2.23-.11,2.43-.52-.39-.84-.9-.84-1.44,0-1.29,1.74-2.33,3.9-2.33s3.89,1.04,3.89,2.33Z"/>
          <g>
            <path class="cls-7" d="M22.48,16.55s.7-2.13-.66-3.74-4.15-3.38-5.45-4.11-2.72-2.15-2.32-3.7,2.51-1.66,3.57-1.36c0,0-.37-1.99.85-2.82s2.86.06,2.76,1.85-.27,3.71-.27,3.71"/>
            <polyline class="cls-7" points="20.02 5.44 21 6.49 22.08 5.65"/>
          </g>
          <circle class="cls-16" cx="24.38" cy="30.09" r=".68"/>
          <circle class="cls-16" cx="27.27" cy="30.09" r=".68"/>
          <g>
            <circle cx="20.9" cy="25.65" r="2.42"/>
            <circle class="cls-6" cx="21.37" cy="24.98" r=".95"/>
          </g>
          <g>
            <circle cx="30.79" cy="25.65" r="2.42"/>
            <circle class="cls-6" cx="30.31" cy="24.98" r=".95"/>
          </g>
          <path class="cls-8" d="M19.51,21.59c.09-.73.77-1.21,1.44-1.34.69-.1,1.41.1,1.84.67-.35.11-.64.14-.91.19-.84.14-1.42.23-2.38.48h0Z"/>
          <path class="cls-8" d="M32.28,21.59c-.96-.25-1.53-.35-2.38-.48-.27-.05-.56-.08-.91-.19.43-.57,1.15-.78,1.84-.67.68.13,1.35.61,1.44,1.34h0Z"/>
          <g>
            <path class="cls-7" d="M29.2,16.55s-.7-2.13.66-3.74,4.15-3.38,5.45-4.11,2.72-2.15,2.32-3.7-2.51-1.66-3.57-1.36c0,0,.37-1.99-.85-2.82s-2.86.06-2.76,1.85.27,3.71.27,3.71"/>
            <polyline class="cls-7" points="31.66 5.44 30.69 6.49 29.6 5.65"/>
          </g>
          <path class="cls-15" d="M32.02,36.82h.01c2.93-.51,5.76-1.44,7.45-3.06,2.91-2.81.32-7-.03-7.93-.36-.92.15-2.55,0-4.34-.16-1.78-1.86-6.15-5.24-8.17-1.3-.78-2.66-1.26-3.9-1.56,0,0,4,3.92,5.09,8.21,1.09,4.29-.7,6.67,0,8.51.7,1.84.3,5.09-3.74,5.7-3.16.48-1.27,1.81.36,2.64Z"/>
          <path class="cls-5" d="M25.84,11.29s4.11.33,6.88,1.72c2.77,1.4,4.07,3.21,5.31,5.64,1.23,2.42,1,4.41.82,5.65-.18,1.24.22,1.73.85,2.96.63,1.22.5,2.58.5,2.58l.64.34c-.1-1.96-1.17-3.78-1.39-4.35-.36-.92.15-2.55,0-4.34-.16-1.78-1.86-6.15-5.24-8.17-1.3-.78-2.66-1.26-3.9-1.56-2.48-.6-4.47-.47-4.47-.47Z"/>
        </g>
        <g>
          <g>
            <path class="cls-10" d="M8.02,17.49c-2.71.5-3.11.9-3.61,3.61-.5-2.71-.9-3.11-3.61-3.61,2.71-.5,3.11-.9,3.61-3.61.5,2.71.9,3.11,3.61,3.61Z"/>
            <path class="cls-4" d="M8.05,17.49c-.18.07-.5.18-.71.24-.23.07-.45.15-.67.23-.44.15-.84.38-1.13.67-.57.63-.67,1.62-.89,2.52l-.32,1.24-.17-1.24c-.06-.47-.13-.93-.23-1.39-.1-.45-.26-.89-.57-1.23-.32-.33-.76-.51-1.21-.63-.45-.13-.92-.19-1.39-.26l-.77-.11.77-.21c.9-.24,1.89-.44,2.47-1.01.55-.61.67-1.59.86-2.49l.35-1.65.27,1.65c.08.46.17.92.28,1.36.11.44.27.85.55,1.16.29.3.69.52,1.12.68.42.16.92.28,1.38.46ZM7.99,17.49c-.28-.02-.43,0-.69-.05-.24-.03-.48-.07-.71-.12-.47-.11-.97-.28-1.37-.64-.39-.37-.61-.86-.77-1.33-.16-.47-.25-.95-.35-1.41h.63c-.09.47-.18.95-.33,1.42-.15.47-.37.97-.76,1.35-.4.38-.9.57-1.38.69-.48.13-.95.18-1.43.25v-.32c.47.11.93.24,1.39.38.46.15.92.35,1.28.69.36.35.58.81.75,1.27.17.46.29.93.4,1.39h-.49c.07-.47.16-.95.31-1.42.15-.47.37-.95.75-1.33.39-.37.9-.53,1.36-.65.24-.06.48-.1.71-.12.26-.05.41-.02.69-.04Z"/>
          </g>
          <path class="cls-3" d="M6.78,17.49c-1.78.33-2.04.59-2.37,2.37-.33-1.78-.59-2.04-2.37-2.37,1.78-.33,2.04-.59,2.37-2.37.33,1.78.59,2.04,2.37,2.37Z"/>
        </g>
      </g>
    </g>
  </g>
</svg>