<?xml version="1.0" encoding="UTF-8"?>
<svg id="Layer_2" data-name="Layer 2" xmlns="http://www.w3.org/2000/svg" xmlns:xlink="http://www.w3.org/1999/xlink" viewBox="0 0 13.53 15.62">
  <defs>
    <style>
      .cls-1 {
        fill: url(#linear-gradient-3);
      }

      .cls-2 {
        fill: url(#linear-gradient-2);
      }

      .cls-3 {
        fill: url(#linear-gradient);
      }
    </style>
    <linearGradient id="linear-gradient" x1="2.23" y1="5.49" x2="10.7" y2="9.7" gradientUnits="userSpaceOnUse">
      <stop offset="0" stop-color="#feee64"/>
      <stop offset=".53" stop-color="#fcb46c"/>
      <stop offset="1" stop-color="#fc8674"/>
    </linearGradient>
    <linearGradient id="linear-gradient-2" x1="-.74" y1="7.81" x2="15.07" y2="7.81" gradientUnits="userSpaceOnUse">
      <stop offset="0" stop-color="#f74545"/>
      <stop offset=".07" stop-color="#f74b43"/>
      <stop offset=".16" stop-color="#f85e3e"/>
      <stop offset=".27" stop-color="#fa7c36"/>
      <stop offset=".4" stop-color="#fca62a"/>
      <stop offset=".51" stop-color="#ffd21f"/>
      <stop offset=".54" stop-color="#ffd225"/>
      <stop offset=".59" stop-color="#ffd338"/>
      <stop offset=".62" stop-color="#ffd447"/>
      <stop offset=".67" stop-color="#fecd46"/>
      <stop offset=".74" stop-color="#fdba46"/>
      <stop offset=".82" stop-color="#fb9c46"/>
      <stop offset=".91" stop-color="#f97245"/>
      <stop offset="1" stop-color="#f74545"/>
    </linearGradient>
    <linearGradient id="linear-gradient-3" x1="7.02" y1="2.87" x2="7.34" y2="13.95" gradientUnits="userSpaceOnUse">
      <stop offset=".23" stop-color="#fff"/>
      <stop offset=".63" stop-color="#fff" stop-opacity="0"/>
    </linearGradient>
  </defs>
  <g id="Layer_1-2" data-name="Layer 1">
    <g>
      <g>
        <path class="cls-3" d="M13.5,7.94c-4.75.88-5.46,1.58-6.34,6.34-.88-4.75-1.58-5.46-6.34-6.34,4.75-.88,5.46-1.58,6.34-6.34.88,4.75,1.58,5.46,6.34,6.34Z"/>
        <path class="cls-2" d="M13.53,7.94c-.36.1-.85.25-1.23.34-.4.11-.8.23-1.19.36-.78.26-1.52.62-2.08,1.17-.54.57-.85,1.32-1.08,2.1-.22.79-.4,1.59-.56,2.41l-.25,1.29-.21-1.29c-.13-.82-.27-1.64-.47-2.43-.2-.79-.51-1.57-1.08-2.16-.57-.58-1.36-.91-2.15-1.14-.79-.23-1.62-.36-2.44-.5l-.8-.13.8-.17c.81-.18,1.62-.36,2.4-.61.78-.25,1.51-.6,2.06-1.14.53-.56.84-1.3,1.07-2.08.22-.78.39-1.59.55-2.41l.29-1.55.28,1.55c.15.82.32,1.63.53,2.41.22.78.52,1.54,1.06,2.11.55.56,1.29.92,2.07,1.18.77.26,1.61.46,2.42.69ZM13.48,7.94c-.82-.08-1.62-.21-2.45-.42-.81-.22-1.65-.53-2.3-1.14-.64-.63-1.01-1.46-1.27-2.26-.26-.81-.42-1.64-.58-2.46h.58c-.16.82-.3,1.65-.56,2.47-.25.81-.61,1.64-1.26,2.29-.66.63-1.5.96-2.31,1.18-.82.22-1.65.36-2.47.5v-.31c.82.17,1.63.37,2.44.61.8.25,1.6.6,2.23,1.19.61.62.97,1.41,1.24,2.21.27.8.46,1.62.63,2.44h-.46c.15-.82.29-1.65.55-2.47.25-.81.61-1.63,1.25-2.27.65-.62,1.49-.93,2.3-1.15.41-.11.82-.19,1.23-.26.43-.09.76-.09,1.22-.15Z"/>
      </g>
      <path class="cls-1" d="M11.79,7.94c-3.47.64-3.98,1.16-4.62,4.62-.64-3.47-1.16-3.98-4.62-4.62,3.47-.64,3.98-1.16,4.62-4.62.64,3.47,1.16,3.98,4.62,4.62Z"/>
    </g>
  </g>
</svg>