<?xml version="1.0" encoding="UTF-8"?>
<svg xmlns="http://www.w3.org/2000/svg" xmlns:xlink="http://www.w3.org/1999/xlink" viewBox="0 0 36.11 8.11">
  <defs>
    <style>
      .cls-1 {
        fill: url(#radial-gradient-2);
      }

      .cls-2 {
        fill: #fff;
        mix-blend-mode: overlay;
        opacity: .74;
      }

      .cls-3 {
        fill: #eb6ea6;
      }

      .cls-4 {
        fill: url(#radial-gradient);
      }

      .cls-5 {
        isolation: isolate;
      }

      .cls-6 {
        fill: #ffd4e8;
        mix-blend-mode: multiply;
      }
    </style>
    <radialGradient id="radial-gradient" cx="3.55" cy="-.4" fx="3.55" fy="-.4" r="9.4" gradientUnits="userSpaceOnUse">
      <stop offset="0" stop-color="#ffe8f2"/>
      <stop offset="1" stop-color="#ffbada"/>
    </radialGradient>
    <radialGradient id="radial-gradient-2" cx="1615.77" cy="-.4" fx="1615.77" fy="-.4" r="9.4" gradientTransform="translate(1648.34) rotate(-180) scale(1 -1)" xlink:href="#radial-gradient"/>
  </defs>
  <g class="cls-5">
    <g id="Layer_2" data-name="Layer 2">
      <g id="Layer_1-2" data-name="Layer 1">
        <g>
          <g>
            <g>
              <path class="cls-4" d="M5.93,7.74c-.26,0-.57-.21-1.31-.78-.24-.18-.58-.44-.75-.54-.14.08-.41.28-.62.43-.69.5-1.13.81-1.48.81-.06,0-.21-.04-.27-.07-.15-.07-.27-.24-.45-.61-.27-.56-.58-1.53-.65-2.56-.06-.75.03-1.41.27-1.96C1.47.57,4,.38,4.11.38h0c.76,0,3.04.66,3.47,2.67.07.34.09.71.06,1.12-.04.8-.31,1.76-.72,2.56-.52,1.02-.88,1.02-.99,1.02Z"/>
              <path class="cls-3" d="M4.14.75c.63,0,2.7.6,3.08,2.37.07.32.08.66.05,1.01-.05.88-.36,1.79-.68,2.42-.25.49-.51.81-.66.81-.3,0-1.76-1.31-2.05-1.34,0,0,0,0,0,0-.29,0-1.65,1.26-2.11,1.26-.03,0-.06,0-.08-.02-.08-.04-.18-.2-.3-.45-.26-.54-.55-1.47-.61-2.42-.05-.63.01-1.26.24-1.79.73-1.69,3.13-1.85,3.13-1.85M4.14,0s-.03,0-.05,0c-.12,0-2.87.21-3.77,2.3C.05,2.91-.05,3.63.02,4.45c.07,1.07.4,2.09.68,2.69.19.39.36.65.64.8.1.06.25.1.42.1.47,0,.96-.33,1.7-.88.12-.09.27-.2.4-.28.16.11.37.27.53.39.81.61,1.15.86,1.54.86.49,0,.9-.38,1.33-1.22.21-.41.69-1.48.76-2.72.04-.43.02-.84-.07-1.21-.48-2.23-3-2.96-3.81-2.96h0Z"/>
            </g>
            <path class="cls-6" d="M7.27,4.13c-.05.88-.36,1.79-.68,2.42-.25.49-.51.81-.66.81-.3,0-1.76-1.31-2.05-1.34-.29-.03-1.85,1.44-2.2,1.24-.08-.04-.18-.2-.3-.45-.26-.54-.55-1.47-.61-2.42.41.37.92.69,1.36.62.91-.15,1.69-.55,2.03-.59.33-.04,1.49.71,2.06.6.28-.05.69-.46,1.05-.89Z"/>
            <path class="cls-2" d="M6.59,6.55c.23-.93.62-2.88.12-3.72-.67-1.13-2.07-1.67-2.44-1.63-.37.05-1.85.21-2.65,1.41-.8,1.2-.24,4.2-.24,4.2-.43-.89-.95-2.88-.37-4.21.73-1.69,3.13-1.85,3.13-1.85.63,0,2.7.6,3.08,2.37.24,1.13-.18,2.55-.63,3.43Z"/>
          </g>
          <g>
            <g>
              <path class="cls-1" d="M30.19,7.74c-.12,0-.48,0-.99-1.02-.41-.8-.67-1.76-.72-2.57-.04-.4-.02-.77.06-1.11.43-2.01,2.71-2.67,3.45-2.67.13,0,2.66.2,3.47,2.08.24.55.33,1.21.27,1.97-.06,1.03-.38,1.99-.65,2.55-.18.37-.31.54-.47.62-.05.03-.19.06-.25.06-.35,0-.79-.3-1.48-.81-.21-.15-.48-.35-.62-.43-.17.1-.51.36-.75.54-.75.57-1.06.78-1.31.78Z"/>
              <path class="cls-3" d="M31.98.75s2.4.16,3.13,1.85c.23.53.29,1.16.24,1.79-.06.95-.35,1.88-.61,2.42-.12.25-.22.41-.3.45-.02.01-.05.02-.08.02-.46,0-1.82-1.26-2.11-1.26,0,0,0,0,0,0-.29.03-1.75,1.34-2.05,1.34-.15,0-.41-.32-.66-.81-.32-.63-.63-1.54-.68-2.42-.03-.35-.02-.69.05-1.01.38-1.77,2.45-2.37,3.08-2.37M31.98,0c-.81,0-3.33.73-3.81,2.96-.08.37-.1.78-.06,1.23.07,1.22.55,2.29.76,2.7.43.84.84,1.22,1.33,1.22.39,0,.74-.25,1.54-.86.16-.12.37-.28.53-.39.13.09.28.2.4.28.75.55,1.23.88,1.7.88.16,0,.32-.04.45-.12.25-.12.42-.39.6-.78.28-.59.61-1.61.68-2.7.06-.81-.04-1.53-.3-2.14C34.89.22,32.14,0,32.03,0c-.02,0-.03,0-.05,0h0Z"/>
            </g>
            <path class="cls-6" d="M28.85,4.13c.05.88.36,1.79.68,2.42.25.49.51.81.66.81.3,0,1.76-1.31,2.05-1.34.29-.03,1.85,1.44,2.2,1.24.08-.04.18-.2.3-.45.26-.54.55-1.47.61-2.42-.41.37-.92.69-1.36.62-.91-.15-1.69-.55-2.03-.59-.33-.04-1.49.71-2.06.6-.28-.05-.69-.46-1.05-.89Z"/>
            <path class="cls-2" d="M29.53,6.55c-.23-.93-.62-2.88-.12-3.72.67-1.13,2.07-1.67,2.44-1.63.37.05,1.85.21,2.65,1.41.8,1.2.24,4.2.24,4.2.43-.89.95-2.88.37-4.21-.73-1.69-3.13-1.85-3.13-1.85-.63,0-2.7.6-3.08,2.37-.24,1.13.18,2.55.63,3.43Z"/>
          </g>
        </g>
      </g>
    </g>
  </g>
</svg>