<?xml version="1.0" encoding="UTF-8"?>
<svg xmlns="http://www.w3.org/2000/svg" xmlns:xlink="http://www.w3.org/1999/xlink" viewBox="0 0 39.39 38.03">
  <defs>
    <style>
      .cls-1 {
        fill: #ffc4d2;
      }

      .cls-2 {
        fill: url(#radial-gradient-4);
      }

      .cls-3 {
        fill: url(#radial-gradient-3);
      }

      .cls-4 {
        fill: url(#radial-gradient-2);
      }

      .cls-5 {
        fill: url(#linear-gradient-4);
      }

      .cls-6 {
        fill: url(#linear-gradient-3);
      }

      .cls-7 {
        fill: url(#linear-gradient-2);
      }

      .cls-8, .cls-9 {
        fill: #fff;
      }

      .cls-8, .cls-10 {
        mix-blend-mode: overlay;
      }

      .cls-11 {
        fill: url(#radial-gradient);
      }

      .cls-12 {
        fill: url(#linear-gradient);
      }

      .cls-13 {
        isolation: isolate;
      }

      .cls-14 {
        fill: #33121a;
      }

      .cls-15 {
        fill: #db611f;
      }

      .cls-16 {
        fill: #8f0b28;
      }

      .cls-17 {
        fill: #e6738e;
        mix-blend-mode: multiply;
      }
    </style>
    <radialGradient id="radial-gradient" cx="26.17" cy="9.35" fx="26.17" fy="9.35" r="5.01" gradientUnits="userSpaceOnUse">
      <stop offset="0" stop-color="#fde491"/>
      <stop offset="1" stop-color="#ffc642"/>
    </radialGradient>
    <radialGradient id="radial-gradient-2" cx="28.12" cy="2.05" fx="28.12" fy="2.05" r="6.03" xlink:href="#radial-gradient"/>
    <radialGradient id="radial-gradient-3" cx="1431.02" cy="-614.82" fx="1431.02" fy="-614.82" r="5.01" gradientTransform="translate(1422.02 -636.4) rotate(131.92) scale(1 -1)" xlink:href="#radial-gradient"/>
    <radialGradient id="radial-gradient-4" cx="1432.96" cy="-622.11" fx="1432.96" fy="-622.11" r="6.03" gradientTransform="translate(1422.02 -636.4) rotate(131.92) scale(1 -1)" xlink:href="#radial-gradient"/>
    <linearGradient id="linear-gradient" x1="7.83" y1="22.37" x2="33.76" y2="22.37" gradientUnits="userSpaceOnUse">
      <stop offset="0" stop-color="#f26385"/>
      <stop offset="1" stop-color="#f52958"/>
    </linearGradient>
    <linearGradient id="linear-gradient-2" x1="32.94" y1="31.74" x2="37.76" y2="34.13" gradientUnits="userSpaceOnUse">
      <stop offset="0" stop-color="#feee64"/>
      <stop offset=".53" stop-color="#fcb46c"/>
      <stop offset="1" stop-color="#fc8674"/>
    </linearGradient>
    <linearGradient id="linear-gradient-3" x1="30.49" y1="32.92" x2="41.01" y2="32.92" gradientUnits="userSpaceOnUse">
      <stop offset="0" stop-color="#f74545"/>
      <stop offset=".07" stop-color="#f74b43"/>
      <stop offset=".16" stop-color="#f85e3e"/>
      <stop offset=".27" stop-color="#fa7c36"/>
      <stop offset=".4" stop-color="#fca62a"/>
      <stop offset=".51" stop-color="#ffd21f"/>
      <stop offset=".54" stop-color="#ffd225"/>
      <stop offset=".59" stop-color="#ffd338"/>
      <stop offset=".62" stop-color="#ffd447"/>
      <stop offset=".67" stop-color="#fecd46"/>
      <stop offset=".74" stop-color="#fdba46"/>
      <stop offset=".82" stop-color="#fb9c46"/>
      <stop offset=".91" stop-color="#f97245"/>
      <stop offset="1" stop-color="#f74545"/>
    </linearGradient>
    <linearGradient id="linear-gradient-4" x1="35.65" y1="29.5" x2="35.82" y2="35.79" gradientUnits="userSpaceOnUse">
      <stop offset=".23" stop-color="#fff"/>
      <stop offset=".63" stop-color="#fff" stop-opacity="0"/>
    </linearGradient>
  </defs>
  <g class="cls-13">
    <g id="Layer_2" data-name="Layer 2">
      <g id="Layer_1-2" data-name="Layer 1">
        <g>
          <g>
            <g>
              <path class="cls-11" d="M25.98,15.97c-.55,0-1.05-.33-1.26-.83-2.99-7.38,1.2-11.61,1.68-12.06.27-.24.59-.35.92-.35.38,0,.75.16,1.01.45.49.56.45,1.42-.1,1.92-.21.21-.76.8-1.2,1.77-.55,1.22-1.04,3.26-.22,6.04.13.46.27.84.42,1.21.14.34.14.71,0,1.05-.14.33-.41.59-.74.73-.16.06-.34.1-.51.1Z"/>
              <path class="cls-15" d="M27.33,3.22c.24,0,.47.1.65.28.31.35.28.89-.07,1.21-.06.06-.76.71-1.32,1.93-.63,1.39-1.09,3.53-.24,6.39.12.41.26.83.44,1.26.18.44-.04.94-.48,1.12-.1.04-.21.06-.32.06-.34,0-.66-.2-.8-.53-2.97-7.32,1.39-11.34,1.57-11.51.17-.14.37-.21.57-.21M27.33,2.22h0c-.45,0-.89.16-1.23.46-.01,0-.03.02-.04.03-.51.48-4.92,4.94-1.81,12.61.3.71.98,1.15,1.73,1.15.24,0,.47-.04.69-.13.46-.19.82-.54,1.02-.99.2-.46.2-.97.01-1.43-.15-.36-.28-.72-.41-1.16-.78-2.63-.33-4.55.19-5.7.41-.89.9-1.43,1.1-1.61.74-.67.8-1.85.13-2.6-.36-.4-.87-.62-1.39-.62h0Z"/>
            </g>
            <path class="cls-8" d="M26.34,13.03c-.3-.25-.55-.7-.71-1.43-.61-2.78.54-4.99.54-4.99l.41.03c-.63,1.39-1.09,3.53-.24,6.39Z"/>
            <g>
              <path class="cls-4" d="M27.07,7.26c-1.86,0-3.38-1.52-3.38-3.38s1.52-3.38,3.38-3.38,3.38,1.52,3.38,3.38-1.52,3.38-3.38,3.38Z"/>
              <path class="cls-15" d="M27.07,1c1.59,0,2.88,1.29,2.88,2.88s-1.29,2.88-2.88,2.88-2.88-1.29-2.88-2.88,1.29-2.88,2.88-2.88M27.07,0c-2.14,0-3.88,1.74-3.88,3.88s1.74,3.88,3.88,3.88,3.88-1.74,3.88-3.88-1.74-3.88-3.88-3.88h0Z"/>
            </g>
            <g class="cls-10">
              <path class="cls-9" d="M27.07,1.5c1.31,0,2.38,1.07,2.38,2.38s-1.07,2.38-2.38,2.38-2.38-1.07-2.38-2.38,1.07-2.38,2.38-2.38M27.07,1c-1.59,0-2.88,1.29-2.88,2.88s1.29,2.88,2.88,2.88,2.88-1.29,2.88-2.88-1.29-2.88-2.88-2.88h0Z"/>
            </g>
          </g>
          <g>
            <g>
              <path class="cls-3" d="M12.59,22.48c-.53,0-1-.29-1.22-.76-.17-.36-.37-.72-.62-1.12-1.52-2.47-3.36-3.47-4.64-3.88-.78-.24-1.44-.29-1.85-.29-.13,0-.23,0-.27,0-.05,0-.14,0-.14,0-.69,0-1.28-.52-1.36-1.2-.07-.75.45-1.41,1.19-1.51.09,0,.26-.02.52-.02,1.47,0,6.52.49,9.61,6.82.24.5.15,1.09-.22,1.5-.11.13-.26.24-.41.31-.19.09-.39.14-.6.14Z"/>
              <path class="cls-15" d="M4.21,14.21c1.49,0,6.21.49,9.16,6.54.15.32.09.7-.14.95-.07.08-.16.15-.26.2-.12.06-.25.09-.38.09-.32,0-.62-.17-.77-.48-.2-.42-.42-.81-.64-1.17-1.56-2.54-3.46-3.63-4.92-4.09-.88-.27-1.6-.32-2-.32-.18,0-.29,0-.32.01-.03,0-.06,0-.09,0-.44,0-.81-.32-.86-.76-.05-.47.29-.89.76-.95.04,0,.2-.02.46-.02M4.21,13.21c-.29,0-.48.02-.53.02-.01,0-.04,0-.05,0-1.01.13-1.73,1.03-1.63,2.04.11.95.91,1.66,1.86,1.66.06,0,.12,0,.19,0,.02,0,.1,0,.22,0,.31,0,.94.04,1.7.27,1.19.38,2.92,1.32,4.36,3.66.24.39.43.73.59,1.07.31.65.96,1.05,1.68,1.05.28,0,.56-.07.82-.19.22-.11.41-.25.57-.43.5-.56.62-1.36.3-2.04-3.22-6.6-8.52-7.11-10.06-7.11h0Z"/>
            </g>
            <path class="cls-8" d="M11.18,20.34c.01-.39-.15-.88-.59-1.48-1.66-2.31-4.07-2.93-4.07-2.93l-.25.33c1.46.46,3.35,1.55,4.92,4.09Z"/>
            <g>
              <path class="cls-2" d="M3.88,18.14c-.83,0-1.64-.31-2.26-.87-1.39-1.25-1.5-3.39-.26-4.77.64-.71,1.56-1.12,2.52-1.12.83,0,1.64.31,2.26.86,1.39,1.25,1.5,3.39.26,4.77-.64.71-1.56,1.12-2.52,1.12h0Z"/>
              <path class="cls-15" d="M3.88,11.88c.69,0,1.37.24,1.92.74,1.18,1.06,1.28,2.88.22,4.07-.57.63-1.36.96-2.14.96-.69,0-1.37-.24-1.92-.74-1.18-1.06-1.28-2.88-.22-4.07.57-.63,1.35-.96,2.14-.96M3.88,10.88c-1.1,0-2.15.47-2.89,1.29-1.43,1.59-1.3,4.05.3,5.48.71.64,1.63.99,2.59.99,1.1,0,2.15-.47,2.89-1.29.69-.77,1.04-1.77.99-2.8-.06-1.03-.51-1.99-1.28-2.68-.71-.64-1.63-.99-2.59-.99h0Z"/>
            </g>
            <g class="cls-10">
              <path class="cls-9" d="M3.88,12.38c.59,0,1.15.22,1.59.61.47.42.75,1.01.79,1.64.03.63-.18,1.25-.61,1.72-.45.5-1.1.79-1.77.79-.59,0-1.15-.22-1.59-.61-.98-.88-1.06-2.38-.18-3.36.45-.5,1.1-.79,1.77-.79M3.88,11.88c-.79,0-1.58.32-2.14.96-1.06,1.18-.96,3,.22,4.07.55.49,1.24.74,1.92.74.79,0,1.58-.32,2.14-.96,1.06-1.18.96-3-.22-4.07-.55-.49-1.24-.74-1.92-.74h0Z"/>
            </g>
          </g>
          <g>
            <path class="cls-12" d="M26.57,33.63s-.4-.03-1.08-.11c-.05,0-.1-.01-.15-.03-2.73-.3-9.76-1.31-13.99-3.67-2.47-1.38-3.77-3.86-3.48-6.62.28-2.63,1.95-4.78,4.26-5.49,1.01-.31,2.07-.47,3.14-.47,2.18,0,3.92.64,4.83,1.06.15-.97.53-2.71,1.54-4.24.02-.03.05-.06.07-.09.64-.99,1.54-1.78,2.62-2.26.89-.4,1.89-.61,2.89-.61,1.85,0,3.59.72,4.79,1.96,1.23,1.29,1.84,3.05,1.75,5.11-.25,5.86-4.87,12.69-6.28,14.64-.31.43-.46.63-.46.63-.1.12-.24.19-.39.19-.01,0-.02,0-.04,0Z"/>
            <path class="cls-16" d="M27.21,11.6c3.14,0,6.22,2.21,6.04,6.55-.24,5.67-4.73,12.35-6.19,14.37-.03.05-.05.08-.05.08-.25.34-.4.53-.4.53,0,0-.39-.03-1.06-.11h-.02s0,0-.04-.01c-2.72-.31-9.76-1.32-13.9-3.63-5.06-2.83-3.77-9.83.68-11.2,1.05-.32,2.06-.45,2.99-.45,3.05,0,5.25,1.34,5.25,1.34,0,0,.14-2.62,1.54-4.74h.01c.58-.89,1.38-1.68,2.47-2.17.85-.38,1.77-.56,2.68-.56M27.21,10.6h0c-1.06,0-2.13.23-3.09.65-1.15.52-2.11,1.35-2.87,2.48-.02.02-.03.04-.04.06-.86,1.31-1.29,2.76-1.5,3.81-1.03-.41-2.59-.86-4.45-.86-1.12,0-2.23.17-3.29.49-2.5.77-4.31,3.09-4.61,5.92-.31,2.97,1.08,5.63,3.73,7.11,4.29,2.4,11.34,3.41,14.23,3.75.05,0,.1.02.14.02.67.08,1.06.11,1.06.11.03,0,.05,0,.08,0,.3,0,.6-.14.79-.38,0,0,.16-.2.42-.56.02-.03.05-.07.08-.12,1.46-2.02,6.1-8.91,6.36-14.88.09-2.2-.56-4.09-1.89-5.48-1.29-1.35-3.17-2.12-5.15-2.12h0Z"/>
          </g>
          <path class="cls-17" d="M33.25,18.15c-.24,5.67-4.73,12.35-6.19,14.37-.03.05-.05.08-.05.08-.25.34-.4.53-.4.53,0,0-.39-.03-1.06-.11.51-1.12,1.17-2.63,2.02-4.63,2.81-6.64,1.94-12.04-.5-14.06-2.34-1.93-4.81-.16-5.01-.01.58-.88,1.38-1.67,2.47-2.16,3.75-1.67,8.96.38,8.72,5.99Z"/>
          <path class="cls-8" d="M32.12,21.17c1.1-4.69-.4-9.42-5.42-8.93-5.02.49-5.77,7.6-5.77,7.6-.91-.52-5.07-2.09-8.23-1.03-3.17,1.07-4.64,4.84-2.21,8.39,2.34,3.43,14.26,5.68,15,5.81-2.72-.31-9.76-1.32-13.9-3.63-5.06-2.83-3.77-9.83.68-11.2,4.5-1.39,8.24.89,8.24.89,0,0,.27-5.23,4.02-6.91,3.75-1.67,8.96.38,8.72,5.99-.24,5.67-4.73,12.35-6.19,14.37.44-.76,4.04-6.96,5.06-11.35Z"/>
          <ellipse class="cls-14" cx="25.12" cy="21.36" rx="1.35" ry="2.12" transform="translate(-6.39 11.64) rotate(-23.23)"/>
          <ellipse class="cls-14" cx="18.4" cy="24.39" rx="1.35" ry="2.12" transform="translate(-8.13 9.24) rotate(-23.23)"/>
          <g>
            <path class="cls-1" d="M22.14,28.81c-.74,0-1.27-.23-1.48-.66-.46-.91.64-2.36,2.51-3.31.91-.46,1.89-.73,2.67-.73.74,0,1.27.23,1.48.66.23.45.08,1.04-.42,1.68-.47.61-1.22,1.19-2.09,1.63-.91.46-1.89.73-2.67.73Z"/>
            <path class="cls-16" d="M25.84,24.24c.66,0,1.17.19,1.37.59.42.83-.68,2.24-2.45,3.14-.94.47-1.87.72-2.61.72-.66,0-1.17-.19-1.37-.59-.42-.83.68-2.24,2.45-3.14.94-.47,1.87-.72,2.61-.72M25.84,23.99h0c-.81,0-1.78.26-2.73.74-1.93.98-3.06,2.51-2.56,3.48.24.47.8.73,1.59.73s1.78-.26,2.73-.74c.89-.45,1.65-1.04,2.14-1.66.53-.67.68-1.32.43-1.81-.24-.47-.8-.73-1.59-.73h0Z"/>
          </g>
        </g>
        <g>
          <g>
            <path class="cls-7" d="M39.36,33.13c-2.71.5-3.11.9-3.61,3.61-.5-2.71-.9-3.11-3.61-3.61,2.71-.5,3.11-.9,3.61-3.61.5,2.71.9,3.11,3.61,3.61Z"/>
            <path class="cls-6" d="M39.39,33.13c-.18.07-.5.18-.71.24-.23.07-.45.15-.67.23-.44.15-.84.38-1.13.67-.57.63-.67,1.62-.89,2.52l-.32,1.24-.17-1.24c-.06-.47-.13-.93-.23-1.39-.1-.45-.26-.89-.57-1.23-.32-.33-.76-.51-1.21-.63-.45-.13-.92-.19-1.39-.26l-.77-.11.77-.21c.9-.24,1.89-.44,2.47-1.01.55-.61.67-1.59.86-2.49l.35-1.65.27,1.65c.08.46.17.92.28,1.36.11.44.27.85.55,1.16.29.3.69.52,1.12.68.42.16.92.28,1.38.46ZM39.33,33.13c-.28-.02-.43,0-.69-.05-.24-.03-.48-.07-.71-.12-.47-.11-.97-.28-1.37-.64-.39-.37-.61-.86-.77-1.33-.16-.47-.25-.95-.35-1.41h.63c-.09.47-.18.95-.33,1.42-.15.47-.37.97-.76,1.35-.4.38-.9.57-1.38.69-.48.13-.95.18-1.43.25v-.32c.47.11.93.24,1.39.38.46.15.92.35,1.28.69.36.35.58.81.75,1.27.17.46.29.93.4,1.39h-.49c.07-.47.16-.95.31-1.42.15-.47.37-.95.75-1.33.39-.37.9-.53,1.36-.65.24-.06.48-.1.71-.12.26-.05.41-.02.69-.04Z"/>
          </g>
          <path class="cls-5" d="M38.12,33.13c-1.78.33-2.04.59-2.37,2.37-.33-1.78-.59-2.04-2.37-2.37,1.78-.33,2.04-.59,2.37-2.37.33,1.78.59,2.04,2.37,2.37Z"/>
        </g>
      </g>
    </g>
  </g>
</svg>