<?xml version="1.0" encoding="UTF-8"?>
<svg xmlns="http://www.w3.org/2000/svg" xmlns:xlink="http://www.w3.org/1999/xlink" viewBox="0 0 31.92 31.37">
  <defs>
    <style>
      .cls-1 {
        fill: url(#linear-gradient-8);
      }

      .cls-2 {
        fill: url(#linear-gradient-7);
      }

      .cls-3 {
        fill: url(#linear-gradient-6);
      }

      .cls-4 {
        fill: url(#linear-gradient-9);
      }

      .cls-5 {
        fill: url(#linear-gradient);
      }

      .cls-6 {
        isolation: isolate;
      }

      .cls-7 {
        fill: url(#radial-gradient);
      }

      .cls-7, .cls-8, .cls-9, .cls-10, .cls-11, .cls-12, .cls-13 {
        mix-blend-mode: overlay;
      }

      .cls-8 {
        fill: url(#linear-gradient-2);
      }

      .cls-9 {
        fill: url(#linear-gradient-3);
      }

      .cls-10 {
        fill: url(#linear-gradient-4);
      }

      .cls-11 {
        fill: url(#linear-gradient-5);
      }

      .cls-14 {
        fill: #fff;
      }

      .cls-15 {
        fill: url(#linear-gradient-10);
      }

      .cls-16 {
        fill: url(#linear-gradient-11);
      }

      .cls-17 {
        fill: url(#linear-gradient-12);
      }

      .cls-13 {
        opacity: .64;
      }

      .cls-18 {
        fill: #1d69eb;
      }

      .cls-19 {
        fill: #cc0f66;
      }
    </style>
    <linearGradient id="linear-gradient" x1="19.73" y1="22.68" x2="13.14" y2="-.51" gradientUnits="userSpaceOnUse">
      <stop offset="0" stop-color="#207df7"/>
      <stop offset=".09" stop-color="#2183f7"/>
      <stop offset=".22" stop-color="#2696f9"/>
      <stop offset=".36" stop-color="#2db4fb"/>
      <stop offset=".53" stop-color="#37defe"/>
      <stop offset=".54" stop-color="#38e1ff"/>
      <stop offset=".61" stop-color="#36dafe"/>
      <stop offset=".71" stop-color="#31c7fc"/>
      <stop offset=".83" stop-color="#2aa9fa"/>
      <stop offset=".97" stop-color="#207ff7"/>
      <stop offset=".97" stop-color="#207df7"/>
    </linearGradient>
    <linearGradient id="linear-gradient-2" x1="15.51" y1="4.4" x2="16.38" y2="16.38" gradientUnits="userSpaceOnUse">
      <stop offset=".14" stop-color="#674c41"/>
      <stop offset=".39" stop-color="#3c2f29"/>
      <stop offset=".6" stop-color="#1f1c1a"/>
      <stop offset=".72" stop-color="#151515"/>
    </linearGradient>
    <linearGradient id="linear-gradient-3" x1="17.21" y1="-2.33" x2="15.74" y2="10.45" gradientUnits="userSpaceOnUse">
      <stop offset=".23" stop-color="#fff"/>
      <stop offset=".63" stop-color="#fff" stop-opacity="0"/>
    </linearGradient>
    <linearGradient id="linear-gradient-4" x1="16.09" y1="2.99" x2="19.32" y2="7.58" xlink:href="#linear-gradient-3"/>
    <linearGradient id="linear-gradient-5" x1="16.38" y1="2.78" x2="19.61" y2="7.38" xlink:href="#linear-gradient-3"/>
    <linearGradient id="linear-gradient-6" x1="-7.23" y1="3.75" x2="45.32" y2="18.15" gradientUnits="userSpaceOnUse">
      <stop offset="0" stop-color="#ed1177"/>
      <stop offset=".09" stop-color="#ee177c"/>
      <stop offset=".23" stop-color="#f12a8a"/>
      <stop offset=".38" stop-color="#f648a1"/>
      <stop offset=".51" stop-color="#fc66b8"/>
      <stop offset=".59" stop-color="#fa5fb2"/>
      <stop offset=".71" stop-color="#f74ca4"/>
      <stop offset=".86" stop-color="#f22e8d"/>
      <stop offset=".97" stop-color="#ed1177"/>
    </linearGradient>
    <radialGradient id="radial-gradient" cx="15.17" cy="10.95" fx="15.17" fy="10.95" r="8.44" gradientUnits="userSpaceOnUse">
      <stop offset=".23" stop-color="#fff"/>
      <stop offset=".63" stop-color="#fff" stop-opacity="0"/>
    </radialGradient>
    <linearGradient id="linear-gradient-7" x1="4.28" y1="21.81" x2="12.85" y2="26.07" gradientUnits="userSpaceOnUse">
      <stop offset="0" stop-color="#feee64"/>
      <stop offset=".53" stop-color="#fcb46c"/>
      <stop offset="1" stop-color="#fc8674"/>
    </linearGradient>
    <linearGradient id="linear-gradient-8" x1="1.97" y1="24.18" x2="16.57" y2="24.18" gradientUnits="userSpaceOnUse">
      <stop offset="0" stop-color="#f74545"/>
      <stop offset=".07" stop-color="#f74b43"/>
      <stop offset=".16" stop-color="#f85e3e"/>
      <stop offset=".27" stop-color="#fa7c36"/>
      <stop offset=".4" stop-color="#fca62a"/>
      <stop offset=".51" stop-color="#ffd21f"/>
      <stop offset=".54" stop-color="#ffd225"/>
      <stop offset=".59" stop-color="#ffd338"/>
      <stop offset=".62" stop-color="#ffd447"/>
      <stop offset=".67" stop-color="#fecd46"/>
      <stop offset=".74" stop-color="#fdba46"/>
      <stop offset=".82" stop-color="#fb9c46"/>
      <stop offset=".91" stop-color="#f97245"/>
      <stop offset="1" stop-color="#f74545"/>
    </linearGradient>
    <linearGradient id="linear-gradient-9" x1="9.35" y1="21.36" x2="9.17" y2="27.94" xlink:href="#linear-gradient-3"/>
    <linearGradient id="linear-gradient-10" x1="15.19" y1="17.09" x2="19.43" y2="19.2" xlink:href="#linear-gradient-7"/>
    <linearGradient id="linear-gradient-11" x1="14.05" y1="18.27" x2="21.27" y2="18.27" xlink:href="#linear-gradient-8"/>
    <linearGradient id="linear-gradient-12" x1="17.7" y1="16.87" x2="17.61" y2="20.12" xlink:href="#linear-gradient-3"/>
  </defs>
  <g class="cls-6">
    <g id="Layer_2" data-name="Layer 2">
      <g id="Layer_1-2" data-name="Layer 1">
        <g>
          <g>
            <path class="cls-5" d="M15.9,18.1c-.35,0-.7-.02-1.05-.06-4.9-.58-8.42-5.03-7.84-9.93.02-.22.06-.43.1-.64C7.9,3.26,11.6.2,15.89.2c.35,0,.69.02,1.04.06,3.24.38,6.02,2.5,7.26,5.53.56,1.38.76,2.9.59,4.4-.53,4.51-4.35,7.91-8.88,7.91Z"/>
            <path class="cls-18" d="M15.89.4c.34,0,.68.02,1.02.06,3.28.39,5.93,2.54,7.1,5.4.53,1.32.75,2.79.57,4.31-.52,4.45-4.3,7.74-8.68,7.74-.34,0-.68-.02-1.03-.06-4.8-.56-8.23-4.91-7.67-9.71.02-.21.06-.42.1-.63C8.08,3.37,11.71.4,15.89.4M15.89,0h0C11.5,0,7.72,3.13,6.9,7.43c-.04.22-.07.43-.1.66-.28,2.42.39,4.82,1.91,6.73,1.51,1.92,3.68,3.13,6.11,3.42.36.04.72.06,1.08.06,4.63,0,8.53-3.48,9.07-8.09.18-1.54-.03-3.09-.6-4.5C23.11,2.62,20.27.45,16.95.06c-.36-.04-.71-.06-1.07-.06h0Z"/>
          </g>
          <path class="cls-8" d="M23.32,10.41c-.48,4.11-4.2,7.05-8.31,6.57-4.11-.48-7.04-4.2-6.56-8.31.02-.18.05-.36.08-.54,1.13.29,2.33.49,3.59.58,4.51.31,8.06-.67,10.71-1.99.46,1.13.64,2.39.49,3.68Z"/>
          <path class="cls-9" d="M23.56,10.05c-.5,4.24-4.34,7.28-8.57,6.78-4.24-.5-7.27-4.34-6.77-8.57.02-.19.05-.37.08-.55.75-3.94,4.43-6.69,8.49-6.22,2.9.34,5.23,2.25,6.27,4.77.47,1.16.66,2.46.51,3.8Z"/>
          <ellipse class="cls-10" cx="15.66" cy="2.37" rx="1.74" ry="1.1"/>
          <ellipse class="cls-11" cx="17.42" cy="4.25" rx=".68" ry=".52"/>
          <g class="cls-12">
            <path class="cls-14" d="M15.87.4v.2c.33,0,.67.02,1.01.06,2.27.27,4.3,1.4,5.71,3.19s2.05,4.03,1.78,6.3c-.51,4.31-4.15,7.56-8.48,7.56-.33,0-.67-.02-1.01-.06-4.68-.55-8.05-4.81-7.5-9.49C7.9,3.85,11.54.6,15.87.6v-.2M15.87.4c-4.38,0-8.16,3.28-8.68,7.73-.56,4.8,2.87,9.15,7.67,9.71.35.04.69.06,1.03.06,4.38,0,8.16-3.28,8.68-7.73.56-4.8-2.87-9.15-7.67-9.71-.35-.04-.69-.06-1.03-.06h0Z"/>
          </g>
          <g>
            <path class="cls-19" d="M1.38,4.81s.51-.33,2.02-.27,3.01.23,3.01.23c0,0-2.1-.96-4.75-.76s-.29.79-.29.79Z"/>
            <path class="cls-19" d="M25.04,10.4c4.94,2.04,5.56,3.44,5.56,3.44l.79-.48c-1.09-1.56-6.35-2.96-6.35-2.96Z"/>
            <path class="cls-3" d="M31.9,14.41c-.24.78-2.32.91-5.47.5-3.01-.39-7-1.29-11.3-2.59-4.51-1.37-8.48-2.92-11.22-4.32C1.29,6.65-.2,5.46.02,4.72c.15-.51,1.11-.75,2.65-.73-.6.06-.98.2-1.05.42-.16.52,1.27,1.46,3.72,2.58,2.53,1.16,6.15,2.5,10.23,3.74,4.07,1.24,7.82,2.14,10.56,2.57,2.67.44,4.39.45,4.55-.06.08-.25-.21-.61-.79-1.06,1.43.91,2.19,1.68,2.02,2.22Z"/>
            <path class="cls-7" d="M26.43,14.91c-3.01-.39-7-1.29-11.3-2.59-4.51-1.37-8.48-2.92-11.22-4.32.45-.35.93-.68,1.43-1.01,2.53,1.16,6.15,2.5,10.23,3.74,4.07,1.24,7.82,2.14,10.56,2.57.14.54.24,1.08.29,1.61Z"/>
            <g class="cls-12">
              <path class="cls-14" d="M1.69,4.13c-.09.07-.15.15-.18.24-.18.58,1.09,1.5,3.78,2.73,2.64,1.21,6.28,2.54,10.25,3.75,3.96,1.21,7.72,2.12,10.58,2.58,1.32.22,2.38.33,3.16.33.92,0,1.42-.16,1.51-.48.03-.1.02-.22-.03-.34,1.01.79,1.09,1.23,1.03,1.44-.13.42-.97.65-2.37.65-.82,0-1.82-.08-2.97-.23-3.09-.4-7.1-1.32-11.28-2.59-4.36-1.32-8.34-2.86-11.2-4.31C.23,5.98.04,5.06.14,4.75c.1-.33.64-.54,1.55-.61M2.53,3.98C1.08,3.98.17,4.22.02,4.72c-.22.75,1.27,1.94,3.89,3.28,2.74,1.4,6.71,2.96,11.22,4.32,4.3,1.3,8.29,2.2,11.3,2.59,1.15.15,2.16.23,2.99.23,1.44,0,2.33-.23,2.49-.73.17-.54-.59-1.32-2.02-2.22.58.44.87.81.79,1.06-.08.27-.58.39-1.4.39-.78,0-1.85-.11-3.15-.33-2.74-.44-6.49-1.33-10.56-2.57-4.08-1.24-7.71-2.58-10.23-3.74-2.45-1.12-3.88-2.07-3.72-2.58.07-.22.44-.36,1.05-.42-.05,0-.09,0-.14,0h0Z"/>
            </g>
          </g>
        </g>
        <g>
          <g>
            <path class="cls-2" d="M15.69,24.29c-4.81.89-5.53,1.6-6.42,6.42-.89-4.81-1.6-5.53-6.42-6.42,4.81-.89,5.53-1.6,6.42-6.42.89,4.81,1.6,5.53,6.42,6.42Z"/>
            <path class="cls-1" d="M15.71,24.29c-.83.2-1.67.39-2.46.64-.8.25-1.58.6-2.16,1.18-.57.6-.89,1.38-1.12,2.18-.22.8-.41,1.62-.57,2.45l-.12.64-.11-.64c-.15-.83-.3-1.66-.53-2.46-.23-.8-.56-1.59-1.13-2.2-.59-.6-1.39-.93-2.19-1.16-.81-.23-1.64-.39-2.47-.53l-.45-.08.45-.09c.83-.17,1.65-.34,2.45-.59.79-.25,1.56-.6,2.14-1.16.56-.59.89-1.36,1.12-2.16.23-.8.4-1.62.56-2.45l.16-.87.16.87c.15.83.32,1.65.54,2.45.23.8.55,1.58,1.11,2.18.58.58,1.36.93,2.16,1.18.79.25,1.63.44,2.46.64ZM15.68,24.29c-.83-.11-1.65-.26-2.48-.49-.81-.23-1.63-.56-2.27-1.17-.62-.62-.98-1.44-1.24-2.25-.26-.82-.41-1.65-.58-2.48h.32c-.16.83-.31,1.67-.56,2.49-.25.81-.6,1.64-1.23,2.27-.64.62-1.47.96-2.28,1.19-.82.23-1.66.38-2.49.53v-.17c.83.17,1.66.34,2.47.59.81.25,1.61.6,2.24,1.19.61.61.97,1.42,1.22,2.23.25.81.42,1.64.59,2.47h-.24c.15-.83.29-1.67.55-2.49.25-.81.61-1.63,1.23-2.25.64-.61,1.46-.94,2.27-1.18.83-.23,1.65-.37,2.48-.48Z"/>
          </g>
          <g class="cls-13">
            <path class="cls-4" d="M14.15,24.29c-3.65.67-4.2,1.22-4.87,4.87-.67-3.65-1.22-4.2-4.87-4.87,3.65-.67,4.2-1.22,4.87-4.87.67,3.65,1.22,4.2,4.87,4.87Z"/>
          </g>
        </g>
        <g>
          <g>
            <path class="cls-15" d="M20.84,18.32c-2.38.44-2.74.79-3.18,3.18-.44-2.38-.79-2.74-3.18-3.18,2.38-.44,2.74-.79,3.18-3.18.44,2.38.79,2.74,3.18,3.18Z"/>
            <path class="cls-16" d="M20.84,18.32c-.81.21-1.69.33-2.29.9-.28.3-.44.68-.55,1.08-.11.4-.2.8-.28,1.21l-.06.3-.06-.3c-.16-.8-.26-1.69-.82-2.31-.29-.3-.69-.46-1.08-.57-.4-.11-.81-.19-1.22-.26l-.21-.04.21-.05c.8-.18,1.68-.31,2.27-.87.56-.6.67-1.48.83-2.28l.08-.38.07.38c.08.41.16.82.27,1.21.11.4.27.78.55,1.08.6.57,1.48.69,2.29.9ZM20.83,18.32c-.41-.06-.82-.13-1.23-.24-.4-.11-.81-.28-1.13-.58-.31-.31-.49-.71-.61-1.11-.13-.4-.2-.82-.28-1.23h.15c-.08.41-.16.82-.28,1.23-.12.4-.3.81-.6,1.13-.31.31-.73.47-1.13.59-.41.11-.82.19-1.23.26v-.09c.81.18,1.68.3,2.33.88.3.3.48.7.6,1.1.12.4.21.81.29,1.22h-.12c.08-.41.14-.83.27-1.23.12-.4.3-.81.61-1.11.32-.3.72-.47,1.12-.58.41-.12.81-.18,1.23-.24Z"/>
          </g>
          <g class="cls-13">
            <path class="cls-17" d="M20.07,18.32c-1.81.33-2.08.6-2.41,2.41-.33-1.81-.6-2.08-2.41-2.41,1.81-.33,2.08-.6,2.41-2.41.33,1.81.6,2.08,2.41,2.41Z"/>
          </g>
        </g>
      </g>
    </g>
  </g>
</svg>